STARTFONT 2.1
FONT -FontForge-Sto Ith-Book-R-Normal--75-720-75-75-P-627-ISO10646-1
SIZE 72 75 75
FONTBOUNDINGBOX 102 102 0 0
COMMENT "Generated by fontforge, http://fontforge.sourceforge.net"
COMMENT "Copyright dsblock19 2019"
STARTPROPERTIES 40
FOUNDRY "FontForge"
FAMILY_NAME "Sto Ith"
WEIGHT_NAME "Book"
SLANT "R"
SETWIDTH_NAME "Normal"
ADD_STYLE_NAME ""
PIXEL_SIZE 75
POINT_SIZE 720
RESOLUTION_X 75
RESOLUTION_Y 75
SPACING "P"
AVERAGE_WIDTH 627
CHARSET_REGISTRY "ISO10646"
CHARSET_ENCODING "1"
FONTNAME_REGISTRY ""
CHARSET_COLLECTIONS "ISO10646-1"
FONT_NAME "Sto-Ith"
FACE_NAME "Sto Ith Regular"
COPYRIGHT "Copyright dsblock19 2019"
FONT_VERSION "1.0"
FONT_ASCENT 75
FONT_DESCENT 0
UNDERLINE_POSITION 6
UNDERLINE_THICKNESS 4
X_HEIGHT 0
CAP_HEIGHT 41
RAW_ASCENT 1000
RAW_DESCENT 0
NORM_SPACE 3
RELATIVE_WEIGHT 40
RELATIVE_SETWIDTH 50
SUPERSCRIPT_X 0
SUPERSCRIPT_Y 37
SUPERSCRIPT_SIZE 37
SUBSCRIPT_X 0
SUBSCRIPT_Y 0
SUBSCRIPT_SIZE 37
FIGURE_WIDTH -1
AVG_LOWERCASE_WIDTH 30
AVG_UPPERCASE_WIDTH 692
ENDPROPERTIES
CHARS 38
STARTCHAR space
ENCODING 32
SWIDTH 39 0
DWIDTH 3 0
BBX 1 1 0 0
BITMAP
00
ENDCHAR
STARTCHAR numbersign
ENCODING 35
SWIDTH 1359 0
DWIDTH 102 0
BBX 99 84 0 0
BITMAP
000FC0000000000000007E0000
000FC0000000000000007E0000
000FC0000000000000007E0000
0071F800000000000003F1C000
0071F800000000000003F1C000
0071F800000000000003F1C000
0381C70000000000001C703800
0381C70000000000001C703800
0381C70000000000001C703800
1C01C0E00000000000E0700700
1C01C0E00000000000E0700700
1C01C0E00000000000E0700700
1C01C01C000000000700700700
1C01C01C000000000700700700
1C01C01C000000000700700700
E001C0038000000038007000E0
E001C0038000000038007000E0
E001C0038000000038007000E0
E001C00070000001C0007000E0
E001C00070000001C0007000E0
E001C00070000001C0007000E0
E001C0000E00000E00007000E0
E001C0000E00000E00007000E0
E001C0000E00000E00007000E0
E001C00001C0007000007000E0
E001C00001C0007000007000E0
E001C00001C0007000007000E0
E001C0000038038000007000E0
E001C0000038038000007000E0
E001C0000038038000007000E0
E001C00000071C0000007000E0
E001C00000071C0000007000E0
E001C00000071C0000007000E0
E001C0000000E00000007000E0
E001C0000000E00000007000E0
E001C0000000E00000007000E0
E001C00000071C0000007000E0
E001C00000071C0000007000E0
E001C00000071C0000007000E0
E001C0000038038000007000E0
E001C0000038038000007000E0
E001C0000038038000007000E0
E001C00001C0007000007000E0
E001C00001C0007000007000E0
E001C00001C0007000007000E0
E001C0000E00000E00007000E0
E001C0000E00000E00007000E0
E001C0000E00000E00007000E0
E001C00070000001C0007000E0
E001C00070000001C0007000E0
E001C00070000001C0007000E0
E001C0038000000038007000E0
E001C0038000000038007000E0
E001C0038000000038007000E0
1C01C01C000000000700700700
1C01C01C000000000700700700
1C01C01C000000000700700700
1C01C0E00000000000E0700700
1C01C0E00000000000E0700700
1C01C0E00000000000E0700700
0381C70000000000001C703800
0381C70000000000001C703800
0381C70000000000001C703800
0071F800000000000003F1C000
0071F800000000000003F1C000
0071F800000000000003F1C000
000FFFFFFFFFFFFFFFFFFE0000
000FFFFFFFFFFFFFFFFFFE0000
000FFFFFFFFFFFFFFFFFFE0000
0001C000000000000000700000
0001C000000000000000700000
0001C000000000000000700000
00003800000000000003800000
00003800000000000003800000
00003800000000000003800000
0000070000000000001C000000
0000070000000000001C000000
0000070000000000001C000000
000000FC0000000007E0000000
000000FC0000000007E0000000
000000FC0000000007E0000000
00000003FFFFFFFFF800000000
00000003FFFFFFFFF800000000
00000003FFFFFFFFF800000000
ENDCHAR
STARTCHAR period
ENCODING 46
SWIDTH 1399 0
DWIDTH 105 0
BBX 102 21 0 0
BITMAP
FFFFFFFFFFFFFFFFFFFFFFFFFC
FFFFFFFFFFFFFFFFFFFFFFFFFC
FFFFFFFFFFFFFFFFFFFFFFFFFC
E000000000000000000000001C
E000000000000000000000001C
E000000000000000000000001C
E07FC000003FFFFE00000FF81C
E07FC000003FFFFE00000FF81C
E07FC000003FFFFE00000FF81C
E07FC000003FFFFE00000FF81C
E07FC000003FFFFE00000FF81C
E07FC000003FFFFE00000FF81C
E07FC000003FFFFE00000FF81C
E07FC000003FFFFE00000FF81C
E07FC000003FFFFE00000FF81C
E000000000000000000000001C
E000000000000000000000001C
E000000000000000000000001C
FFFFFFFFFFFFFFFFFFFFFFFFFC
FFFFFFFFFFFFFFFFFFFFFFFFFC
FFFFFFFFFFFFFFFFFFFFFFFFFC
ENDCHAR
STARTCHAR less
ENCODING 60
SWIDTH 879 0
DWIDTH 66 0
BBX 63 27 0 0
BITMAP
0000000380000000
0000000380000000
0000000380000000
0000001C70000000
0000001C70000000
0000001C70000000
000000E00E000000
000000E00E000000
000000E00E000000
0000070381C00000
0000070381C00000
0000070381C00000
0000071C70380000
0000071C70380000
0000071C70380000
0000381C70380000
0000381C70380000
0000381C70380000
0001C0E00E070000
0001C0E00E070000
0001C0E00E070000
000E00E00E00E000
000E00E00E00E000
000E00E00E00E000
E070070001C01C0E
E070070001C01C0E
E070070001C01C0E
ENDCHAR
STARTCHAR greater
ENCODING 62
SWIDTH 879 0
DWIDTH 66 0
BBX 63 27 0 0
BITMAP
0000000380000000
0000000380000000
0000000380000000
0000000000000000
0000000000000000
0000000000000000
000007FFFFC00000
000007FFFFC00000
000007FFFFC00000
0000000000000000
0000000000000000
0000000000000000
0001FFFFFFFF0000
0001FFFFFFFF0000
0001FFFFFFFF0000
0000000000000000
0000000000000000
0000000000000000
000FFFFFFFFFE000
000FFFFFFFFFE000
000FFFFFFFFFE000
0000000000000000
0000000000000000
0000000000000000
E07FFFFFFFFFFF8E
E07FFFFFFFFFFF8E
E07FFFFFFFFFFF8E
ENDCHAR
STARTCHAR at
ENCODING 64
SWIDTH 879 0
DWIDTH 66 0
BBX 63 63 0 0
BITMAP
FFFFFFFFFFFFFFFE
FFFFFFFFFFFFFFFE
FFFFFFFFFFFFFFFE
E00000000000000E
E00000000000000E
E00000000000000E
E000000000003C0E
E000000000007E0E
E00000000000FF0E
E00000000000E38E
E00000000000E38E
E00000000000E38E
E00000000000FF0E
E000000000007F0E
E000000000003E0E
E00000000000000E
E00000000000000E
E00000000000000E
E00000000000000E
E00000000000000E
E00000000000000E
E00000000000000E
E00000000000000E
E00000000000000E
E00000000000000E
E00000000000000E
E00000000000000E
E00000000000000E
E00000000000000E
E00000000000000E
FFFFFFFFFFFFFFFE
FFFFFFFFFFFFFFFE
FFFFFFFFFFFFFFFE
E00000000000000E
E00000000000000E
E00000000000000E
E00000000000000E
E00000000000000E
E00000000000000E
E00000000000000E
E00000000000000E
E00000000000000E
E00000000000000E
E00000000000000E
E00000000000000E
E00000000000000E
E00000000000000E
E00000000000000E
FFFFFFFFFFFFFFFE
FFFFFFFFFFFFFFFE
FFFFFFFFFFFFFFFE
E00000000000000E
E00000000000000E
E00000000000000E
E00000000000000E
E00000000000000E
E00000000000000E
E00000000000000E
E00000000000000E
E00000000000000E
FFFFFFFFFFFFFFFE
FFFFFFFFFFFFFFFE
FFFFFFFFFFFFFFFE
ENDCHAR
STARTCHAR A
ENCODING 65
SWIDTH 1039 0
DWIDTH 78 0
BBX 75 75 0 0
BITMAP
000000000E0000000000
000000000E0000000000
000000000E0000000000
000000000E0000000000
000000000E0000000000
000000000E0000000000
000000000E0000000000
000000000E0000000000
000000000E0000000000
000000000E0000000000
000000000E0000000000
000000000E0000000000
000000007FC000000000
000000007FC000000000
000000007FC000000000
000000038E3800000000
000000038E3800000000
000000038E3800000000
0000001C7FC700000000
0000001C7FC700000000
0000001C7FC700000000
000000E07FC0E0000000
000000E07FC0E0000000
000000E07FC0E0000000
000007038E381C000000
000007038E381C000000
000007038E381C000000
0000381C0E0703800000
0000381C0E0703800000
0000381C0E0703800000
0001C01C0E0700700000
0001C01C0E0700700000
0001C01C0E0700700000
000E001C0E07000E0000
000E001C0E07000E0000
000E001C0E07000E0000
FFFFFFFFFFFFFFFFFFE0
FFFFFFFFFFFFFFFFFFE0
FFFFFFFFFFFFFFFFFFE0
000E001C0E07000E0000
000E001C0E07000E0000
000E001C0E07000E0000
0001C01C0E0700700000
0001C01C0E0700700000
0001C01C0E0700700000
0000381C0E0703800000
0000381C0E0703800000
0000381C0E0703800000
000007038E381C000000
000007038E381C000000
000007038E381C000000
000000E38E38E0000000
000000E38E38E0000000
000000E38E38E0000000
0000001FFFFF00000000
0000001FFFFF00000000
0000001FFFFF00000000
00000003FFF800000000
00000003FFF800000000
00000003FFF800000000
000000007FC000000000
000000007FC000000000
000000007FC000000000
000000000E0000000000
000000000E0000000000
000000000E0000000000
000000000E0000000000
000000000E0000000000
000000000E0000000000
000000000E0000000000
000000000E0000000000
000000000E0000000000
000000000E0000000000
000000000E0000000000
000000000E0000000000
ENDCHAR
STARTCHAR B
ENCODING 66
SWIDTH 879 0
DWIDTH 66 0
BBX 63 63 0 0
BITMAP
FFFFFFFFFFFFFFFE
FFFFFFFFFFFFFFFE
FFFFFFFFFFFFFFFE
FC0000000000007E
FC0000000000007E
FC0000000000007E
FC0000000000007E
FC0000000000007E
FC0000000000007E
E38000000000038E
E38000000000038E
E38000000000038E
E38000000000038E
E38000000000038E
E38000000000038E
E07FFFFFFFFFFC0E
E07FFFFFFFFFFC0E
E07FFFFFFFFFFC0E
E070000000001C0E
E070000000001C0E
E070000000001C0E
E00E00000000E00E
E00E00000000E00E
E00E00000000E00E
E00E00000000E00E
E00E00000000E00E
E00E00000000E00E
E001FFFFFFFF000E
E001FFFFFFFF000E
E001FFFFFFFF000E
E001C0000007000E
E001C0000007000E
E001C0000007000E
E000381FF038000E
E000381FF038000E
E000381FF038000E
E00038E00E38000E
E00038E00E38000E
E00038E00E38000E
E0003F0001F8000E
E0003F0001F8000E
E0003F0001F8000E
E001C70001C7000E
E001C70001C7000E
E001C70001C7000E
E00E00E38E00E00E
E00E00E38E00E00E
E00E00E38E00E00E
E07000E00E001C0E
E07000E00E001C0E
E07000E00E001C0E
E070001C70001C0E
E070001C70001C0E
E070001C70001C0E
E380001C7000038E
E380001C7000038E
E380001C7000038E
FC0000038000007E
FC0000038000007E
FC0000038000007E
FFFFFFFFFFFFFFFE
FFFFFFFFFFFFFFFE
FFFFFFFFFFFFFFFE
ENDCHAR
STARTCHAR C
ENCODING 67
SWIDTH 879 0
DWIDTH 66 0
BBX 63 63 0 0
BITMAP
FFFFFFFFFFFFFFFE
FFFFFFFFFFFFFFFE
FFFFFFFFFFFFFFFE
E00000038000000E
E00000038000000E
E00000038000000E
E07E00038000FC0E
E07E00038000FC0E
E07E00038000FC0E
E07E00038000FC0E
E07E00038000FC0E
E07E00038000FC0E
E00000038000000E
E00000038000000E
E00000038000000E
E00000038000000E
E00000038000000E
E00000038000000E
E00000038000000E
E00000038000000E
E00000038000000E
E00000038000000E
E00000038000000E
E00000038000000E
E00000038000000E
E00000038000000E
E00000038000000E
E00000038000000E
E00000038000000E
E00000038000000E
E00000038000000E
E00000038000000E
E00000038000000E
E00FFFFF8000000E
E00FFFFF8000000E
E00FFFFF8000000E
E00E00000000000E
E00E00000000000E
E00E00000000000E
E00E00000000000E
E00E00000000000E
E00E00000000000E
E00FFFFFFFFFE00E
E00FFFFFFFFFE00E
E00FFFFFFFFFE00E
E00000000000E00E
E00000000000E00E
E00000000000E00E
E00000000000E00E
E00000000000E00E
E00000000000E00E
E0000003FFFFE00E
E0000003FFFFE00E
E0000003FFFFE00E
E00000038000000E
E00000038000000E
E00000038000000E
E00000038000000E
E00000038000000E
E00000038000000E
FFFFFFFFFFFFFFFE
FFFFFFFFFFFFFFFE
FFFFFFFFFFFFFFFE
ENDCHAR
STARTCHAR D
ENCODING 68
SWIDTH 1039 0
DWIDTH 78 0
BBX 75 63 0 0
BITMAP
03FFFFFFFFFFFFFFF800
03FFFFFFFFFFFFFFF800
03FFFFFFFFFFFFFFF800
038000000E0000003800
038000000E0000003800
038000000E0000003800
038000000E0000003800
038000000E0000003800
038000000E0000003800
038000000E0000003800
038000000E0000003800
038000000E0000003800
03803FE00E00FF803800
03803FE00E00FF803800
03803FE00E00FF803800
038038E00E00FF803800
038038E00E00FF803800
038038E00E00FF803800
03803FE00E00FF803800
03803FE00E00FF803800
03803FE00E00FF803800
038000000E0000003800
038000000E0000003800
038000000E0000003800
038000000E0000003800
038000000E0000003800
038000000E0000003800
038000000E0000003800
038000000E0000003800
038000000E0000003800
038000000E0000003800
038000000E0000003800
038000000E0000003800
038000000E0000003800
038000000E0000003800
038000000E0000003800
038000000E0000003800
038000000E0000003800
038000000E0000003800
038000007FC000003800
038000007FC000003800
038000007FC000003800
038000000E0000003800
038000000E0000003800
038000000E0000003800
03800003FFF800003800
03800003FFF800003800
03800003FFF800003800
038000000E0000003800
038000000E0000003800
038000000E0000003800
0380001FFFFF00003800
0380001FFFFF00003800
0380001FFFFF00003800
03800000000000003800
03800000000000003800
03800000000000003800
03800000000000003800
03800000000000003800
03800000000000003800
FFFFFFFFFFFFFFFFFFE0
FFFFFFFFFFFFFFFFFFE0
FFFFFFFFFFFFFFFFFFE0
ENDCHAR
STARTCHAR E
ENCODING 69
SWIDTH 879 0
DWIDTH 66 0
BBX 63 63 0 0
BITMAP
FFFE00000000FFFE
FFFE00000000FFFE
FFFE00000000FFFE
E00E00000000E00E
E00E00000000E00E
E00E00000000E00E
E38E00000000E38E
E38E00000000E38E
E38E00000000E38E
E00E00000000E00E
E00E00000000E00E
E00E00000000E00E
E00FFF0001FFE00E
E00FFF0001FFE00E
E00FFF0001FFE00E
E000070001C0000E
E000070001C0000E
E000070001C0000E
E001C70001C7000E
E001C70001C7000E
E001C70001C7000E
E00007FFFFC0000E
E00007FFFFC0000E
E00007FFFFC0000E
E00000000000000E
E00000000000000E
E00000000000000E
E00000038000000E
E00000038000000E
E00000038000000E
E38000000000038E
E38000000000038E
E38000000000038E
E00000000000000E
E00000000000000E
E00000000000000E
E00000000000000E
E00000000000000E
E00000000000000E
E001C0038007000E
E001C0038007000E
E001C0038007000E
E00000000000000E
E00000000000000E
E00000000000000E
E00000000000000E
E00000000000000E
E00000000000000E
E0000007C000000E
E000000FE000000E
E000001FF000000E
E000001FF000000E
E000001FF000000E
E000001FF000000E
E380001FF000038E
E380000FE000038E
E3800007C000038E
E00000000000000E
E00000000000000E
E00000000000000E
FFFFFFFFFFFFFFFE
FFFFFFFFFFFFFFFE
FFFFFFFFFFFFFFFE
ENDCHAR
STARTCHAR F
ENCODING 70
SWIDTH 799 0
DWIDTH 60 0
BBX 57 84 0 0
BITMAP
0000001C00000000
0000001C00000000
0000001C00000000
000000E380000000
000000E380000000
000000E380000000
0000070070000000
0000070070000000
0000070070000000
000038000E000000
000038000E000000
000038000E000000
0001C00001C00000
0001C00001C00000
0001C00001C00000
000E000000380000
000E000000380000
000E000000380000
0070000000070000
0070000000070000
0070000000070000
038FFFFFFFF8E000
038FFFFFFFF8E000
038FFFFFFFF8E000
1C0FC00001F81C00
1C0FC00001F81C00
1C0FC00001F81C00
E00E381C0E380380
E00E381C0E380380
E00E381C0E380380
1C01C7E3F1C01C00
1C01C7E3F1C01C00
1C01C7E3F1C01C00
0381C71C71C0E000
0381C71C71C0E000
0381C71C71C0E000
0071F81C0FC70000
0071F81C0FC70000
0071F81C0FC70000
000FC01C01F80000
000FC01C01F80000
000FC01C01F80000
000FC01C0FF80000
000FC01C0FF80000
000FC01C0FF80000
0070381C0E070000
0070381C0E070000
0070381C0E070000
03803F1C7E00E000
03803F1C7E00E000
03803F1C7E00E000
1C0038FF8E001C00
1C0038FF8E001C00
1C0038FF8E001C00
E000381C0E000380
E000381C0E000380
E000381C0E000380
1C00070070001C00
1C00070070001C00
1C00070070001C00
038007007000E000
038007007000E000
038007007000E000
007007FFF0070000
007007FFF0070000
007007FFF0070000
000E000000380000
000E000000380000
000E000000380000
0001C00001C00000
0001C00001C00000
0001C00001C00000
000038000E000000
000038000E000000
000038000E000000
0000070070000000
0000070070000000
0000070070000000
000000E380000000
000000E380000000
000000E380000000
0000001C00000000
0000001C00000000
0000001C00000000
ENDCHAR
STARTCHAR G
ENCODING 71
SWIDTH 879 0
DWIDTH 66 0
BBX 63 42 0 0
BITMAP
E00000007000000E
E00000007000000E
E00000007000000E
000000038E00000E
000000038E00000E
000000038E00000E
000000038E00000E
000000038E00000E
000000038E00000E
0000001C01C0000E
0000001C01C0000E
0000001C01C0000E
000000E001C0000E
000000E001C0000E
000000E001C0000E
000000E3F038000E
000000E3F038000E
000000E3F038000E
00000703F038000E
00000703F038000E
00000703F038000E
FFFFFF00003FFFFE
FFFFFF00003FFFFE
FFFFFF00003FFFFE
E00000E001C00000
E00000E001C00000
E00000E001C00000
E000001FFE000000
E000001FFE000000
E000001FFE000000
E000000000000000
E000000000000000
E000000000000000
E000000000000000
E000000000000000
E000000000000000
E000000000000000
E000000000000000
E000000000000000
E00000000000000E
E00000000000000E
E00000000000000E
ENDCHAR
STARTCHAR H
ENCODING 72
SWIDTH 959 0
DWIDTH 72 0
BBX 69 69 0 0
BITMAP
FFFFFFFFFFFFFFFFF8
FFFFFFFFFFFFFFFFF8
FFFFFFFFFFFFFFFFF8
FF80000000000001F8
FF80000000000001F8
FF80000000000001F8
E07E000000000001F8
E07E000000000001F8
E07E000000000001F8
E071F80000000001F8
E071F80000000001F8
E071F80000000001F8
E07007E000000001F8
E07007E000000001F8
E07007E000000001F8
E070071C00000001F8
E070071C00000001F8
E070071C00000001F8
E0700703F0000001F8
E0700703F0000001F8
E0700703F0000001F8
E07007000FC00001F8
E07007000FC00001F8
E07007000FC00001F8
E07007000E3F0001F8
E07007000E3F0001F8
E07007000E3F0001F8
E07007000E00FC01F8
E07007000E00FC01F8
E07007000E00FC01F8
E07007000E0003F1F8
E07007000E0003F1F8
E07007000E0003F1F8
E07007000E07000FF8
E07007000E07000FF8
E07007000E07000FF8
E07007000E0003F1F8
E07007000E0003F1F8
E07007000E0003F1F8
E07007000E00FC01F8
E07007000E00FC01F8
E07007000E00FC01F8
E07007000E3F0001F8
E07007000E3F0001F8
E07007000E3F0001F8
E07007000FC00001F8
E07007000FC00001F8
E07007000FC00001F8
E070070070000001F8
E070070070000001F8
E070070070000001F8
E070071F80000001F8
E070071F80000001F8
E070071F80000001F8
E07007E000000001F8
E07007E000000001F8
E07007E000000001F8
E071F80000000001F8
E071F80000000001F8
E071F80000000001F8
E07E000000000001F8
E07E000000000001F8
E07E000000000001F8
FF80000000000001F8
FF80000000000001F8
FF80000000000001F8
FFFFFFFFFFFFFFFFF8
FFFFFFFFFFFFFFFFF8
FFFFFFFFFFFFFFFFF8
ENDCHAR
STARTCHAR I
ENCODING 73
SWIDTH 879 0
DWIDTH 66 0
BBX 63 87 0 0
BITMAP
FFFFFFFFFFFFFFFE
FFFFFFFFFFFFFFFE
FFFFFFFFFFFFFFFE
E00000000000000E
E00000000000000E
E00000000000000E
1C0000000000000E
1C0000000000000E
1C0000000000000E
03F000000000000E
03F000000000000E
03F000000000000E
000E00000000000E
000E00000000000E
000E00000000000E
0001F8000000000E
0001F8000000000E
0001F8000000000E
000007E00000000E
000007E00000000E
000007E00000000E
0000001F8000000E
0000001F8000000E
0000001F8000000E
000000007000000E
000000007000000E
000000007000000E
000000000E00000E
000000000E00000E
000000000E00000E
0000000001C0000E
0000000001C0000E
0000000001C0000E
000000000038000E
000000000038000E
000000000038000E
000000000038000E
000000000038000E
000000000038000E
000000000007000E
000000000007000E
000000000007000E
000000000007000E
000000000007000E
000000000007000E
000000000007000E
000000000007000E
000000000007000E
000000000007000E
000000000007000E
000000000007000E
000000000000E00E
000000000000E00E
000000000000E00E
000000000000E00E
000000000000E00E
000000000000E00E
000000000000E00E
000000000000E00E
000000000000E00E
0000000000001C0E
0000000000001C0E
0000000000001C0E
0000000000001C0E
0000000000001C0E
0000000000001C0E
0000000000001C0E
0000000000001C0E
0000000000001C0E
000000000000038E
000000000000038E
000000000000038E
000000000000038E
000000000000038E
000000000000038E
000000000000038E
000000000000038E
000000000000038E
000000000000038E
000000000000038E
000000000000038E
000000000000007E
000000000000007E
000000000000007E
000000000000007E
000000000000007E
000000000000007E
ENDCHAR
STARTCHAR J
ENCODING 74
SWIDTH 879 0
DWIDTH 66 0
BBX 63 63 0 0
BITMAP
FFFFFFFFFFFFFFFE
FFFFFFFFFFFFFFFE
FFFFFFFFFFFFFFFE
E00000038000000E
E00000038000000E
E00000038000000E
E00000038000000E
E00000038000000E
E00000038000000E
E00000038000000E
E00000038000000E
E00000038000000E
E00000038000000E
E00000038000000E
E00000038000000E
E00000038000000E
E00000038000000E
E00000038000000E
E00000038000000E
E00000038000000E
E00000038000000E
E00007FFFFC0000E
E00007FFFFC0000E
E00007FFFFC0000E
E00007FFFFC0000E
E00007FFFFC0000E
E00007FFFFC0000E
E00007FFFFC0000E
E00007FFFFC0000E
E00007FFFFC0000E
FFFFFFFFFFFFFFFE
FFFFFFFFFFFFFFFE
FFFFFFFFFFFFFFFE
E00007FFFFC0000E
E00007FFFFC0000E
E00007FFFFC0000E
E00007FFFFC0000E
E00007FFFFC0000E
E00007FFFFC0000E
E00007FFFFC0000E
E00007FFFFC0000E
E00007FFFFC0000E
E00000038000000E
E00000038000000E
E00000038000000E
E00000038000000E
E00000038000000E
E00000038000000E
E00000038000000E
E00000038000000E
E00000038000000E
E00000038000000E
E00000038000000E
E00000038000000E
E00000038000000E
E00000038000000E
E00000038000000E
E00000038000000E
E00000038000000E
E00000038000000E
FFFFFFFFFFFFFFFE
FFFFFFFFFFFFFFFE
FFFFFFFFFFFFFFFE
ENDCHAR
STARTCHAR K
ENCODING 75
SWIDTH 1239 0
DWIDTH 93 0
BBX 90 66 0 0
BITMAP
0001C0000000000000E00000
0001C0000000000000E00000
0001C0000000000000E00000
0001C0000000000000E00000
0001C0000000000000E00000
0001C0000000000000E00000
0001F8000000000000E00000
0001F8000000000000E00000
0001F8000000000000E00000
0001C7000000000000E00000
0001C7000000000000E00000
0001C7000000000000E00000
0001C0E00000000000E00000
0001C0E00000000000E00000
0001C0E00000000000E00000
0001C01C0000000000E00000
0001C01C0000000000E00000
0001C01C0000000000E00000
0001C003F000000000E00000
0001C003F000000000E00000
0001C003F000000000E00000
0001C0000E00000000E00000
0001C0000E00000000E00000
0001C0000E00000000E00000
0001C00001C0000000E00000
0001C00001C0000000E00000
0001C00001C0000000E00000
0001C000003F000000E00000
0001C000003F000000E00000
0001C000003F000000E00000
0001C0000000E00000E00000
0001C0000000E00000E00000
0001C0000000E00000E00000
0001C00000001C0000E00000
0001C00000001C0000E00000
0001C00000001C0000E00000
0001C000000003F000E00000
0001C000000003F000E00000
0001C000000003F000E00000
0001C0000000000E00E00000
0001C0000000000E00E00000
0001C0000000000E00E00000
0001C00000000001C0E00000
0001C00000000001C0E00000
0001C00000000001C0E00000
0001C0000000000038E00000
0001C0000000000038E00000
0001C0000000000038E00000
0001FFFFFFFFFFFFFFE00000
0001FFFFFFFFFFFFFFE00000
0001FFFFFFFFFFFFFFE00000
000E000000000000001C0000
000E000000000000001C0000
000E000000000000001C0000
007000000000000000038000
007000000000000000038000
007000000000000000038000
038000000000000000007000
038000000000000000007000
038000000000000000007000
1C0000000000000000000E00
1C0000000000000000000E00
1C0000000000000000000E00
FFFFFFFFFFFFFFFFFFFFFFC0
FFFFFFFFFFFFFFFFFFFFFFC0
FFFFFFFFFFFFFFFFFFFFFFC0
ENDCHAR
STARTCHAR L
ENCODING 76
SWIDTH 879 0
DWIDTH 66 0
BBX 63 63 0 0
BITMAP
0000000380000000
0000000380000000
0000000380000000
0000000380000000
0000000380000000
0000000380000000
0000000380000000
0000000380000000
0000000380000000
0000000380000000
0000000380000000
0000000380000000
0000000380000000
0000000380000000
0000000380000000
0000000380000000
0000000380000000
0000000380000000
FFFFF803803FFFFE
FFFFF803803FFFFE
FFFFF803803FFFFE
0000380380380000
0000380380380000
0000380380380000
0000380380380000
0000380380380000
0000380380380000
1C0E38038038E070
1C0E38038038E070
1C0E38038038E070
FFFFFFFFFFFFFFFE
FFFFFFFFFFFFFFFE
FFFFFFFFFFFFFFFE
1C0E38038038E070
1C0E38038038E070
1C0E38038038E070
0000380380380000
0000380380380000
0000380380380000
0000380380380000
0000380380380000
0000380380380000
FFFFF803803FFFFE
FFFFF803803FFFFE
FFFFF803803FFFFE
0000000380000000
0000000380000000
0000000380000000
0000000380000000
0000000380000000
0000000380000000
0000000380000000
0000000380000000
0000000380000000
0000000380000000
0000000380000000
0000000380000000
0000000380000000
0000000380000000
0000000380000000
0000000380000000
0000000380000000
0000000380000000
ENDCHAR
STARTCHAR M
ENCODING 77
SWIDTH 1039 0
DWIDTH 78 0
BBX 75 75 0 0
BITMAP
E00000000E00000000E0
E00000000E00000000E0
E00000000E00000000E0
1C0000000E0000000700
1C0000000E0000000700
1C0000000E0000000700
038000000E0000003800
038000000E0000003800
038000000E0000003800
007000007FC00001C000
007000007FC00001C000
007000007FC00001C000
000E00038E38000E0000
000E00038E38000E0000
000E00038E38000E0000
0001C01C0E0700700000
0001C01C0E0700700000
0001C01C0E0700700000
000038E00E00E3800000
000038E00E00E3800000
000038E00E00E3800000
000007000E001C000000
000007000E001C000000
000007000E001C000000
000038E00E00E3800000
000038E00E00E3800000
000038E00E00E3800000
0001C01C0E0700700000
0001C01C0E0700700000
0001C01C0E0700700000
000E00038E38000E0000
000E00038E38000E0000
000E00038E38000E0000
007000007FC00001C000
007000007FC00001C000
007000007FC00001C000
FFFFFFFFFFFFFFFFFFE0
FFFFFFFFFFFFFFFFFFE0
FFFFFFFFFFFFFFFFFFE0
007000007FC00001C000
007000007FC00001C000
007000007FC00001C000
000E00038E38000E0000
000E00038E38000E0000
000E00038E38000E0000
0001C01C0E0700700000
0001C01C0E0700700000
0001C01C0E0700700000
000038E00E00E3800000
000038E00E00E3800000
000038E00E00E3800000
000007000E001C000000
000007000E001C000000
000007000E001C000000
000038E00E00E3800000
000038E00E00E3800000
000038E00E00E3800000
0001C01C0E0700700000
0001C01C0E0700700000
0001C01C0E0700700000
000E00038E38000E0000
000E00038E38000E0000
000E00038E38000E0000
007000007FC00001C000
007000007FC00001C000
007000007FC00001C000
038000000E0000003800
038000000E0000003800
038000000E0000003800
1C0000000E0000000700
1C0000000E0000000700
1C0000000E0000000700
E00000000E00000000E0
E00000000E00000000E0
E00000000E00000000E0
ENDCHAR
STARTCHAR N
ENCODING 78
SWIDTH 879 0
DWIDTH 66 0
BBX 63 63 0 0
BITMAP
E00000000000000E
E00000000000000E
E00000000000000E
E00000000000000E
E00000000000000E
E00000000000000E
E00000000000000E
E00000000000000E
E00000000000000E
E00000000000000E
E00000000000000E
E00000000000000E
E00000000000000E
E00000000000000E
E00000000000000E
E00000000000000E
E00000000000000E
E00000000000000E
E00000000000000E
E00000000000000E
E00000000000000E
E00000038000000E
E00000038000000E
E00000038000000E
E00000038000000E
E00000038000000E
E00000038000000E
E00000038000000E
E00000038000000E
E00000038000000E
E00000038000000E
E00000038000000E
E00000038000000E
E000001F8000000E
E000001F8000000E
E000001F8000000E
E000001C0000000E
E000001C0000000E
E000001C0000000E
E00000E38000000E
E00000E38000000E
E00000E38000000E
E00000E07000000E
E00000E07000000E
E00000E07000000E
E00007007000000E
E00007007000000E
E00007007000000E
E00007000E00000E
E00007000E00000E
E00007000E00000E
E00000E00E00000E
E00000E00E00000E
E00000E00E00000E
E380001C7000038E
E380001C7000038E
E380001C7000038E
E00000038000000E
E00000038000000E
E00000038000000E
FFFFFFFFFFFFFFFE
FFFFFFFFFFFFFFFE
FFFFFFFFFFFFFFFE
ENDCHAR
STARTCHAR O
ENCODING 79
SWIDTH 879 0
DWIDTH 66 0
BBX 63 87 0 0
BITMAP
0000001FF0000000
0000001FF0000000
0000001FF0000000
0000001FF0000000
0000001FF0000000
0000001FF0000000
0000001FF0000000
0000001FF0000000
0000001FF0000000
0000000380000000
0000000380000000
0000000380000000
0000000380000000
0000000380000000
0000000380000000
0000000380000000
0000000380000000
0000000380000000
0000000380000000
0000000380000000
0000000380000000
0000000380000000
0000000380000000
0000000380000000
FFFFFFFFFFFFFFFE
FFFFFFFFFFFFFFFE
FFFFFFFFFFFFFFFE
E00000038000000E
E00000038000000E
E00000038000000E
E00000038000000E
E00000038000000E
E00000038000000E
E00000038000000E
E00000038000000E
E00000038000000E
E00000038000000E
E00000038000000E
E00000038000000E
E00000038000000E
E00000038000000E
E00000038000000E
E00000038000000E
E00000038000000E
E00000038000000E
E00000038000000E
E00000038000000E
E00000038000000E
E00000038000000E
E00000038000000E
E00000038000000E
E000001FF000000E
E000001FF000000E
E000001FF000000E
E00000038000000E
E00000038000000E
E00000038000000E
E00000FFFE00000E
E00000FFFE00000E
E00000FFFE00000E
E00000038000000E
E00000038000000E
E00000038000000E
E00007FFFFC0000E
E00007FFFFC0000E
E00007FFFFC0000E
E00000038000000E
E00000038000000E
E00000038000000E
E00000038000000E
E00000038000000E
E00000038000000E
E00000038000000E
E00000038000000E
E00000038000000E
E00000038000000E
E00000038000000E
E00000038000000E
E00000000000000E
E00000000000000E
E00000000000000E
E00000000000000E
E00000000000000E
E00000000000000E
E00000000000000E
E00000000000000E
E00000000000000E
ENDCHAR
STARTCHAR P
ENCODING 80
SWIDTH 879 0
DWIDTH 66 0
BBX 63 63 0 0
BITMAP
0000000380000000
0000000380000000
0000000380000000
0000001C70000000
0000001C70000000
0000001C70000000
0000001C70000000
0000001C70000000
0000001C70000000
000000E00E000000
000000E00E000000
000000E00E000000
000000E38E000000
000000E38E000000
000000E38E000000
0000071C71C00000
0000071C71C00000
0000071C71C00000
0000381C70380000
0000381C70380000
0000381C70380000
000038E00E380000
000038E00E380000
000038E00E380000
0001C0E00E070000
0001C0E00E070000
0001C0E00E070000
0001C70001C70000
0001C70001C70000
0001C70001C70000
000E070001C0E000
000E070001C0E000
000E070001C0E000
000E38000038E000
000E38000038E000
000E38000038E000
0070380000381C00
0070380000381C00
0070380000381C00
0381C00000070380
0381C00000070380
0381C00000070380
0381C00000070380
0381C00000070380
0381C00000070380
1C0E00000000E070
1C0E00000000E070
1C0E00000000E070
1C0E00000000E070
1C0E00000000E070
1C0E00000000E070
E070000000001C0E
E070000000001C0E
E070000000001C0E
FFFFFFFFFFFFFFFE
FFFFFFFFFFFFFFFE
FFFFFFFFFFFFFFFE
E00000000000000E
E00000000000000E
E00000000000000E
FFFFFFFFFFFFFFFE
FFFFFFFFFFFFFFFE
FFFFFFFFFFFFFFFE
ENDCHAR
STARTCHAR Q
ENCODING 81
SWIDTH 879 0
DWIDTH 66 0
BBX 63 102 0 0
BITMAP
000FFFFFFFFFE000
000FFFFFFFFFE000
000FFFFFFFFFE000
000E00000000E000
000E00000000E000
000E00000000E000
000E3FFFFFF8E000
000E3FFFFFF8E000
000E3FFFFFF8E000
000E38000038E000
000E38000038E000
000E38000038E000
000E38FFFE38E000
000E38FFFE38E000
000E38FFFE38E000
000038E00E380000
000038E00E380000
000038E00E380000
000000E38E000000
000000E38E000000
000000E38E000000
0000000380000000
0000000380000000
0000000380000000
0000001FF0000000
0000001FF0000000
0000001FF0000000
000007E38FC00000
000007E38FC00000
000007E38FC00000
0001F803803F0000
0001F803803F0000
0001F803803F0000
007E00038000FC00
007E00038000FC00
007E00038000FC00
0380000380000380
0380000380000380
0380000380000380
FFFFFFFFFFFFFFFE
FFFFFFFFFFFFFFFE
FFFFFFFFFFFFFFFE
0380000380000380
0380000380000380
0380000380000380
0070000380001C00
0070000380001C00
0070000380001C00
000E00038000E000
000E00038000E000
000E00038000E000
0001C00380070000
0001C00380070000
0001C00380070000
0000380380380000
0000380380380000
0000380380380000
0000070381C00000
0000070381C00000
0000070381C00000
000000E38E000000
000000E38E000000
000000E38E000000
0000001FF0000000
0000001FF0000000
0000001FF0000000
0000000380000000
0000000380000000
0000000380000000
0000000380000000
0000000380000000
0000000380000000
0000000380000000
0000000380000000
0000000380000000
0000000380000000
0000000380000000
0000000380000000
0000000380000000
0000000380000000
0000000380000000
0000000380000000
0000000380000000
0000000380000000
0000000380000000
0000000380000000
0000000380000000
0000000380000000
0000000380000000
0000000380000000
0000000380000000
0000000380000000
0000000380000000
0000000380000000
0000000380000000
0000000380000000
0000000380000000
0000000380000000
0000000380000000
00003FFFFFF80000
00003FFFFFF80000
00003FFFFFF80000
ENDCHAR
STARTCHAR R
ENCODING 82
SWIDTH 879 0
DWIDTH 66 0
BBX 63 63 0 0
BITMAP
FF800000000003FE
FF800000000003FE
FF800000000003FE
0070000000001C00
0070000000001C00
0070000000001C00
000E00000000E000
000E00000000E000
000E00000000E000
000E00000000E000
000E00000000E000
000E00000000E000
0001C00000070000
0001C00000070000
0001C00000070000
0000380000380000
0000380000380000
0000380000380000
0000070001C00000
0000070001C00000
0000070001C00000
000000E00E000000
000000E00E000000
000000E00E000000
000000E00E000000
000000E00E000000
000000E00E000000
001F001C700F0000
003F801C701F8000
007FC01C703FC000
0071C0038038E000
0071C0038038E000
0071C0038038E000
007FC01C703FE000
003F801C701FC000
001F001C700F8000
000000E00E000000
000000E00E000000
000000E00E000000
000000E00E000000
000000E00E000000
000000E00E000000
0000070001C00000
0000070001C00000
0000070001C00000
0000380000380000
0000380000380000
0000380000380000
0001C00000070000
0001C00000070000
0001C00000070000
000E00000000E000
000E00000000E000
000E00000000E000
000E00000000E000
000E00000000E000
000E00000000E000
0070000000001C00
0070000000001C00
0070000000001C00
FF800000000003FE
FF800000000003FE
FF800000000003FE
ENDCHAR
STARTCHAR S
ENCODING 83
SWIDTH 1039 0
DWIDTH 78 0
BBX 75 75 0 0
BITMAP
E000001FFFFF000000E0
E000001FFFFF000000E0
E000001FFFFF000000E0
1C00001FFFFF00000700
1C00001FFFFF00000700
1C00001FFFFF00000700
0380001FFFFF00003800
0380001FFFFF00003800
0380001FFFFF00003800
007000000E000001C000
007000000E000001C000
007000000E000001C000
000E00000E00000E0000
000E00000E00000E0000
000E00000E00000E0000
0001C0000E0000700000
0001C0000E0000700000
0001C0000E0000700000
000038000E0003800000
000038000E0003800000
000038000E0003800000
000007000E001C000000
000007000E001C000000
000007000E001C000000
000000E00E00E0000000
000000E00E00E0000000
000000E00E00E0000000
0000001C0E0700000000
0000001C0E0700000000
0000001C0E0700000000
000000038E3800000000
000000038E3800000000
000000038E3800000000
000000007FC000000000
000000007FC000000000
000000007FC000000000
000000000E0000000000
000000000E0000000000
000000000E0000000000
000000007FC000000000
000000007FC000000000
000000007FC000000000
000000038E3800000000
000000038E3800000000
000000038E3800000000
0000001C0E0700000000
0000001C0E0700000000
0000001C0E0700000000
000000E00E00E0000000
000000E00E00E0000000
000000E00E00E0000000
000007000E001C000000
000007000E001C000000
000007000E001C000000
000038000E0003800000
000038000E0003800000
000038000E0003800000
0001C0000E0000700000
0001C0000E0000700000
0001C0000E0000700000
000E00000E00000E0000
000E00000E00000E0000
000E00000E00000E0000
007000000E000001C000
007000000E000001C000
007000000E000001C000
0380001FFFFF00003800
0380001FFFFF00003800
0380001FFFFF00003800
1C00001C000700000700
1C00001C000700000700
1C00001C000700000700
E000001C0007000000E0
E000001C0007000000E0
E000001C0007000000E0
ENDCHAR
STARTCHAR T
ENCODING 84
SWIDTH 839 0
DWIDTH 63 0
BBX 53 63 5 0
BITMAP
00000070000000
00000070000000
00000070000000
00000070000000
00000070000000
00000070000000
00000070000000
00000070000000
00000070000000
FFFFFFFFFFFFF8
7FFFFFFFFFFFF0
7FFFFFFFFFFFF0
7000007000E070
7000007000E070
7000007000E070
7000007000E070
7000007000E070
7000007000E070
7FFFFFFFFFFFF0
7FFFFFFFFFFFF0
FFFFFFFFFFFFF8
7000007000E070
7000007000E070
7000007000E070
7000007000E070
7000007000E070
7000007000E070
7000000000E070
7000000000E070
7000000000E070
7000000000E070
7000000000E070
7000000000E070
7000000000E070
7000000000E070
7000000000E070
7000000000E070
7000000000E070
7000000000E070
7000000000E070
7000000000E070
7000000000E070
7000000000E070
7000000000E070
7000000000E070
7000000000E070
7000000000E070
7000000000E070
7000000000E070
7000000000E070
7000000000E070
7000000000E070
7000000000E070
7000000000E070
7000000000E070
7000000000E070
7000000000E070
70000000000070
70000000000070
70000000000070
70000000000070
70000000000070
70000000000070
ENDCHAR
STARTCHAR U
ENCODING 85
SWIDTH 879 0
DWIDTH 66 0
BBX 63 63 0 0
BITMAP
E00000000000000E
E00000000000000E
E00000000000000E
FC0000000000007E
FC0000000000007E
FC0000000000007E
E38000000000038E
E38000000000038E
E38000000000038E
E070000000001C0E
E070000000001C0E
E070000000001C0E
E00E00000000E00E
E00E00000000E00E
E00E00000000E00E
E001C0000007000E
E001C0000007000E
E001C0000007000E
E00038000038000E
E00038000038000E
E00038000038000E
E000070001C0000E
E000070001C0000E
E000070001C0000E
E07E00E00E00FC0E
E07E00E00E00FC0E
E07E00E00E00FC0E
E07E001C7000FC0E
E07E001C7000FC0E
E07E001C7000FC0E
E00000038000000E
E00000038000000E
E00000038000000E
E000001C7000000E
E000001C7000000E
E000001C7000000E
E00000E00E00000E
E00000E00E00000E
E00000E00E00000E
E000070001C0000E
E000070001C0000E
E000070001C0000E
E00038000038000E
E00038000038000E
E00038000038000E
E001C0000007000E
E001C0000007000E
E001C0000007000E
E00E00000000E00E
E00E00000000E00E
E00E00000000E00E
E07007FFFFC01C0E
E07007FFFFC01C0E
E07007FFFFC01C0E
E38000000000038E
E38000000000038E
E38000000000038E
FC0000000000007E
FC0000000000007E
FC0000000000007E
FFFFFFFFFFFFFFFE
FFFFFFFFFFFFFFFE
FFFFFFFFFFFFFFFE
ENDCHAR
STARTCHAR V
ENCODING 86
SWIDTH 879 0
DWIDTH 66 0
BBX 63 63 0 0
BITMAP
E00000038000000E
E00000038000000E
E00000038000000E
FC00001C7000007E
FC00001C7000007E
FC00001C7000007E
FC0E071C70001C7E
FC0E071C70001C7E
FC0E071C70001C7E
E38000E00E38038E
E38000E00E38038E
E38000E00E38038E
E38000E00E00038E
E38000E00E00038E
E38000E00E00038E
E071C70001C71C0E
E071C70001C71C0E
E071C70001C71C0E
E07007FFFFC01C0E
E07007FFFFC01C0E
E07007FFFFC01C0E
E00E38000038E00E
E00E38000038E00E
E00E38000038E00E
E00E3FE00FF8E00E
E00E3FE00FF8E00E
E00E3FE00FF8E00E
E001C01FF007000E
E001C01FF007000E
E001C01FF007000E
E001F800003F000E
E001F800003F000E
E001F800003F000E
E00E38000038E00E
E00E38000038E00E
E00E38000038E00E
E00E07FFFFC0E00E
E00E07FFFFC0E00E
E00E07FFFFC0E00E
E070000380001C0E
E070000380001C0E
E070000380001C0E
E070000380001C0E
E070000380001C0E
E070000380001C0E
E38000038000038E
E38000038000038E
E38000038000038E
E38000038000038E
E38000038000038E
E38000038000038E
FC0000038000007E
FC0000038000007E
FC0000038000007E
FC0000038000007E
FC0000038000007E
FC0000038000007E
E00000038000000E
E00000038000000E
E00000038000000E
E00000038000000E
E00000038000000E
E00000038000000E
ENDCHAR
STARTCHAR W
ENCODING 87
SWIDTH 879 0
DWIDTH 66 0
BBX 63 63 0 0
BITMAP
FFFFFFFFFFFFFFFE
FFFFFFFFFFFFFFFE
FFFFFFFFFFFFFFFE
0000000000000000
0000000000000000
0000000000000000
0000000000000000
0000000000000000
0000000000000000
FFFFFFFFFFFFFFFE
FFFFFFFFFFFFFFFE
FFFFFFFFFFFFFFFE
0000000000000000
0000000000000000
0000000000000000
0000000000000000
0000000000000000
0000000000000000
FFFFFFFFFFFFFFFE
FFFFFFFFFFFFFFFE
FFFFFFFFFFFFFFFE
E00000000000000E
E00000000000000E
E00000000000000E
E00000000000000E
E00000000000000E
E00000000000000E
E00000000000000E
E00000000000000E
E00000000000000E
E00000000000000E
E00000000000000E
E00000000000000E
E00000000000000E
E00000000000000E
E00000000000000E
E00000000000000E
E00000000000000E
E00000000000000E
E00000FFFE00000E
E00000FFFE00000E
E00000FFFE00000E
E001FF1FF1FF000E
E001FF1FF1FF000E
E001FF1FF1FF000E
E00E001FF000E00E
E00E001FF000E00E
E00E001FF000E00E
E07000FF80001C0E
E07000FF80001C0E
E07000FF80001C0E
E38000FF8000038E
E38000FF8000038E
E38000FF8000038E
FC00001FF000007E
FC00001FF000007E
FC00001FF000007E
E0000003F000000E
E0000003F000000E
E0000003F000000E
E00000038000000E
E00000038000000E
E00000038000000E
ENDCHAR
STARTCHAR X
ENCODING 88
SWIDTH 1039 0
DWIDTH 78 0
BBX 75 42 0 0
BITMAP
E00000000000000000E0
E00000000000000000E0
E00000000000000000E0
000000000000000000E0
000000000000000000E0
000000000000000000E0
000000000000000000E0
000000000000000000E0
000000000000000000E0
000FFFFFFFFFFFFFFFE0
000FFFFFFFFFFFFFFFE0
000FFFFFFFFFFFFFFFE0
000FC000000000000000
000FC000000000000000
000FC000000000000000
000E3800000000000000
000E3800000000000000
000E3800000000000000
000E0700000000000000
000F0700000000000000
000F8700000000000000
000FC700000000000000
000F8700000000000000
000F0700000000000000
000E3800000000000000
000E3800000000000000
000E3800000000000000
000FC000000000000000
000FC000000000000000
000FC000000000000000
00700000000000000000
00700000000000000000
00700000000000000000
03800000000000000000
03800000000000000000
03800000000000000000
1C000000000000000000
1C000000000000000000
1C000000000000000000
1FF000000000000000E0
1FF000000000000000E0
1FF000000000000000E0
ENDCHAR
STARTCHAR Y
ENCODING 89
SWIDTH 879 0
DWIDTH 66 0
BBX 63 63 0 0
BITMAP
0000000380000000
0000000380000000
0000000380000000
0000001C70000000
0000001C70000000
0000001C70000000
000000E38E000000
000000E38E000000
000000E38E000000
0000071C71C00000
0000071C71C00000
0000071C71C00000
000038E00E380000
000038E00E380000
000038E00E380000
0001C70001C70000
0001C70001C70000
0001C70001C70000
000E38038038E000
000E38038038E000
000E38038038E000
0071C0E00E071C00
0071C0E00E071C00
0071C0E00E071C00
038E001C7000E380
038E001C7000E380
038E001C7000E380
1C70000380001C70
1C70000380001C70
1C70000380001C70
FF800003800003FE
FF800003800003FE
FF800003800003FE
0000000380000000
0000000380000000
0000000380000000
0000000380000000
0000000380000000
0000000380000000
0000000380000000
0000000380000000
0000000380000000
0000000380000000
0000000380000000
0000000380000000
0000000380000000
0000000380000000
0000000380000000
0000000380000000
0000000380000000
0000000380000000
0000000380000000
0000000380000000
0000000380000000
0000000380000000
0000000380000000
0000000380000000
0000000380000000
0000000380000000
0000000380000000
0000000380000000
0000000380000000
0000000380000000
ENDCHAR
STARTCHAR Z
ENCODING 90
SWIDTH 879 0
DWIDTH 66 0
BBX 63 63 0 0
BITMAP
E00000000000000E
E00000000000000E
E00000000000000E
E00000000000038E
E00000000000038E
E00000000000038E
E00000000000000E
E00000000000000E
E00000000000000E
E00000000000000E
E00000000000000E
E00000000000000E
E0000000000003FE
E0000000000003FE
E0000000000003FE
E00000000007FC0E
E00000000007FC0E
E00000000007FC0E
E00000000FF8000E
E00000000FF8000E
E00000000FF8000E
E000001FF000000E
E000001FF000000E
E000001FF000000E
E0003FE00000000E
E0003FE00000000E
E0003FE00000000E
E07FC0000000000E
E07FC0000000000E
E07FC0000000000E
FFF000E00000000E
FFF000E00000000E
FFF000E00000000E
E00FF8000000000E
E00FF8000000000E
E00FF8000000000E
E00007FC0000000E
E00007FC0000000E
E00007FC0000000E
E0000003F000000E
E0000003F000000E
E0000003F000000E
E00000000FF8000E
E00000000FF8000E
E00000000FF8000E
E00000000007FC0E
E00000000007FC0E
E00000000007FC0E
E0000000000003FE
E0000000000003FE
E0000000000003FE
E00000000000000E
E00000000000000E
E00000000000000E
E00000000000000E
E00000000000000E
E00000000000000E
E00000000000038E
E00000000000038E
E00000000000038E
E00000000000000E
E00000000000000E
E00000000000000E
ENDCHAR
STARTCHAR asciicircum
ENCODING 94
SWIDTH 1399 0
DWIDTH 105 0
BBX 102 21 0 0
BITMAP
FFFFFFFFFFFFFFFFFFFFFFFFFC
FFFFFFFFFFFFFFFFFFFFFFFFFC
FFFFFFFFFFFFFFFFFFFFFFFFFC
E000000000000000000000001C
E000000000000000000000001C
E000000000000000000000001C
E000000000000000000000001C
E000000000000000000000001C
E000000000000000000000001C
E000000000000000000000001C
E000000000000000000000001C
E000000000000000000000001C
E000000000000000000000001C
E000000000000000000000001C
E000000000000000000000001C
E000000000000000000000001C
E000000000000000000000001C
E000000000000000000000001C
FFFFFFFFFFFFFFFFFFFFFFFFFC
FFFFFFFFFFFFFFFFFFFFFFFFFC
FFFFFFFFFFFFFFFFFFFFFFFFFC
ENDCHAR
STARTCHAR g
ENCODING 103
SWIDTH 39 0
DWIDTH 3 0
BBX 1 1 0 0
BITMAP
00
ENDCHAR
STARTCHAR x
ENCODING 120
SWIDTH 39 0
DWIDTH 3 0
BBX 1 1 0 0
BITMAP
00
ENDCHAR
STARTCHAR .notdef
ENCODING -1
SWIDTH 809 0
DWIDTH 61 0
BBX 58 75 0 0
BITMAP
FFFFFFFFFFFFFFC0
C0000000000000C0
8000000000000140
8000000000000240
9000000000000040
8800000000000440
8400000000000840
8000000000001040
8200000000000040
8100000000002040
8080000000004040
8000000000008040
8040000000000040
8020000000000040
8010000000020040
8000000000040040
8000000000000040
8004000000000040
8002000000100040
8000000000200040
8000000000000040
8000800000000040
8000400000800040
8000000001000040
8000000002000040
8000100000000040
8000080004000040
8000000008000040
8000000010000040
8000020000000040
8000010020000040
8000008040000040
8000000080000040
8000004000000040
8000002000000040
8000001200000040
8000000400000040
8000000800000040
8000000400000040
8000001200000040
8000002000000040
8000004000000040
8000000080000040
8000008040000040
8000010020000040
8000020000000040
8000000010000040
8000040008000040
8000080004000040
8000100000000040
8000000002000040
8000000001000040
8000400000800040
8000800000000040
8000000000000040
8000000000200040
8002000000100040
8004000000000040
8008000000000040
8000000000040040
8010000000020040
8020000000000040
8040000000000040
8000000000008040
8080000000004040
8100000000000040
8200000000000040
8000000000001040
8400000000000840
8800000000000440
9000000000000040
8000000000000240
8000000000000140
C0000000000000C0
FFFFFFFFFFFFFFC0
ENDCHAR
STARTCHAR glyph1
ENCODING -1
SWIDTH 39 0
DWIDTH 3 0
BBX 1 1 0 0
BITMAP
00
ENDCHAR
STARTCHAR glyph2
ENCODING -1
SWIDTH 39 0
DWIDTH 3 0
BBX 1 1 0 0
BITMAP
00
ENDCHAR
ENDFONT
